<svg width="84" height="83" viewBox="0 0 84 83" fill="none" xmlns="http://www.w3.org/2000/svg">
<rect width="84" height="83" rx="15" fill="#F57E71"/>
<path d="M62.7607 40.5988C62.7009 40.5629 55.2947 28.0599 44 28C32.7053 28.0599 25.2991 40.5629 25.2393 40.5988L25 40.994L25.2393 41.4012C25.2872 41.4371 32.5378 53.9401 44 54C55.4742 53.9401 62.7128 41.4371 62.7607 41.4012L63 40.994L62.7607 40.5988ZM43.8205 51.1138C38.3287 51.1018 33.7941 46.6587 33.7821 41.006C33.7941 35.3533 38.3287 30.8982 43.8205 30.8862C49.3004 30.8982 53.847 35.3413 53.8589 41.006C53.847 46.6587 49.3004 51.1018 43.8205 51.1138Z" fill="#F9F9F9"/>
<path d="M44 35.9641C41.3079 35.9641 39.0466 38.1557 39.0346 41.006C39.0466 43.8443 41.3079 46.0359 44 46.0479C46.6921 46.0479 48.9534 43.8563 48.9654 41.006C48.9534 38.1557 46.6921 35.9641 44 35.9641Z" fill="#F9F9F9"/>
</svg>
