<svg width="84" height="83" viewBox="0 0 84 83" fill="none" xmlns="http://www.w3.org/2000/svg">
<rect width="84" height="83" rx="15" fill="#FFB167"/>
<path d="M48.8457 50.3622C43.99 54.3746 41.1876 58.7632 41.035 59C40.813 58.7492 36.7065 53.9706 33.5018 50.3622C32.5168 49.2477 30.6301 47.4226 28.7294 45.1796H29.7838C30.1584 45.1796 30.5052 44.9567 30.6578 44.6084L33.7654 37.4195L36.8453 49.3313C36.9563 49.7353 37.317 50.0279 37.7332 50.0557C37.747 50.0557 37.7609 50.0557 37.7748 50.0557C38.1771 50.0557 38.5517 49.791 38.6766 49.4149L41.8813 40.0526L43.2131 42.9505C43.3657 43.2988 43.7125 43.5077 44.0871 43.5077H55.5881C53.299 46.4195 50.6492 48.8715 48.8457 50.3622ZM56.9476 41.5573H44.6837L42.6166 37.0294C42.4501 36.6672 42.0894 36.4443 41.7009 36.4721C41.3125 36.5 40.9656 36.7508 40.8408 37.1269L37.8996 45.7368L34.9169 34.2291C34.8198 33.839 34.473 33.5464 34.0706 33.5186C33.6544 33.4768 33.2799 33.7136 33.1134 34.0898L29.1456 43.257H27.1756C23.4853 38.3669 20.6829 32.1115 25.7605 26.8452C28.4103 24.0867 30.9353 23.1533 33.1411 23.1533C37.8719 23.1533 40.9934 27.2353 41.1599 27.4443C41.3818 27.2353 45.5716 23 50.6492 23C52.9799 23 55.4355 23.9334 57.6829 26.6502C61.6229 31.4149 59.9998 36.918 56.9476 41.5573Z" fill="#F9F9F9"/>
</svg>
