<svg width="84" height="83" viewBox="0 0 84 83" fill="none" xmlns="http://www.w3.org/2000/svg">
<rect width="84" height="83" rx="15" fill="#4B7FFB"/>
<path d="M57.8351 28.6164C55.8064 26.1966 53.3555 25.0133 50.3737 25C50.3601 25 50.3601 25 50.3464 25C47.3782 25 44.7368 26.2897 44.0015 26.6886C43.7973 26.7949 43.6611 26.8747 43.5658 26.9279L43.4705 26.9944C43.3207 27.0874 43.1437 27.1007 42.9803 27.021L42.6944 26.8747V26.888C42.5991 26.8481 42.4766 26.7949 42.3268 26.7284C41.7413 26.4891 41.115 26.2631 40.4887 26.0504C39.0862 25.5983 36.9349 25.0665 34.6339 25.0665H34.6203C31.053 25.0798 28.3162 26.2498 26.2057 28.6297C24.7352 30.3316 24 32.1265 24 34.1342C24 36.2216 24.8033 38.4952 26.4781 41.0745C27.1725 42.1515 27.8941 43.1088 28.534 43.9464C29.0923 44.691 29.5825 45.3292 29.882 45.8344C30.5219 46.9778 30.8487 48.5866 31.1891 50.2752C31.2572 50.6076 31.3253 50.94 31.3933 51.2724C31.7882 53.2534 32.3192 55.4472 33.2451 56.697C33.9259 57.6011 34.6067 57.9734 35.6278 57.9867C36.2542 57.9601 36.6218 57.7607 37.0575 57.2023C37.5204 56.5907 37.8064 55.6068 37.9697 54.9021C38.2284 53.8251 38.3782 52.5355 38.5416 51.2857C38.6641 50.3284 38.7867 49.3445 38.9501 48.4404C39.1952 47.2039 39.4811 45.9275 40.2708 45.05C40.6929 44.5846 41.3056 44.3054 41.9455 44.3054C42.8714 44.3054 43.6884 44.8372 44.1921 45.7546C44.7095 46.6587 44.9818 47.7756 45.2133 48.8525C45.3495 49.5439 45.472 50.2619 45.6082 50.9799C45.9213 52.8014 46.2209 54.5032 46.7519 55.7264C47.2284 56.7768 47.7731 57.4815 48.8351 57.4948C49.9788 57.4549 50.469 57.056 50.9592 56.338C51.3812 55.6865 51.6944 54.6628 51.9123 53.2002C52.0212 52.5886 52.0893 51.9371 52.171 51.2724C52.416 49.2514 52.6747 47.1773 53.6551 45.6217C54.1044 44.9569 54.7035 44.199 55.3434 43.4013C57.4402 40.782 60.0545 37.5246 60.0136 34.0145C60 32.1531 59.292 30.3715 57.8351 28.6164Z" fill="#F9F9F9"/>
</svg>
